<?xml version="1.0" encoding="utf-8"?>
<!-- Generator: Adobe Illustrator 26.1.0, SVG Export Plug-In . SVG Version: 6.00 Build 0)  -->
<svg version="1.1" id="Layer_1" xmlns="http://www.w3.org/2000/svg" xmlns:xlink="http://www.w3.org/1999/xlink" x="0px" y="0px"
	 viewBox="0 0 256 256" style="enable-background:new 0 0 256 256;" xml:space="preserve">
<g transform="translate(45.02412451361867 45.024124513618645) scale(1.83 1.83)">
	<path d="M83.3,0H6.7C3,0,0,2.9,0,6.4v77.1C0,87.1,3,90,6.7,90h76.7c3.7,0,6.7-2.9,6.7-6.4V6.4C90,2.9,87,0,83.3,0z M27.3,75.3H13.7
		V34.7h13.6V75.3z M20.5,29.2L20.5,29.2c-4.6,0-7.6-3.1-7.6-7c0-4,3-7,7.7-7c4.7,0,7.5,3,7.6,7C28.2,26,25.2,29.2,20.5,29.2z
		 M76.3,75.3H62.7V53.6c0-5.5-2-9.2-6.9-9.2c-3.8,0-6,2.5-7,4.9c-0.4,0.9-0.4,2.1-0.4,3.3v22.7H34.8c0,0,0.2-36.8,0-40.6h13.6v5.8
		c1.8-2.8,5-6.7,12.3-6.7c8.9,0,15.7,5.8,15.7,18.3V75.3z"/>
</g>
</svg>
