<?xml version="1.0" encoding="utf-8"?>
<!-- Generator: Adobe Illustrator 26.1.0, SVG Export Plug-In . SVG Version: 6.00 Build 0)  -->
<svg version="1.1"
	 id="Layer_1" shape-rendering="geometricPrecision" image-rendering="optimizeQuality" text-rendering="geometricPrecision"
	 xmlns="http://www.w3.org/2000/svg" xmlns:xlink="http://www.w3.org/1999/xlink" x="0px" y="0px" viewBox="0 0 512 512"
	 style="enable-background:new 0 0 512 512;" xml:space="preserve">
<style type="text/css">
	.st0{fill-rule:evenodd;clip-rule:evenodd;fill:#FFFFFF;}
</style>
<path class="st0" d="M474.9,0H38.6C17.7,0,0,16.5,0,36.8v438.3C0,495.5,11.6,512,32.5,512h436.3c20.9,0,43.2-16.5,43.2-36.9V36.8
	C512,16.5,495.8,0,474.9,0z M195,195H264v35.1h0.8c10.5-18.9,41.5-38.2,79.9-38.2c73.7,0,94.2,39.1,94.2,111.5v135.3h-73.1v-122
	c0-32.4-12.9-60.9-43.2-60.9c-36.8,0-54.3,24.9-54.3,65.8v117.1H195L195,195L195,195z M73.1,438.9h73.1V195H73.1V438.9z
	 M155.4,109.7c0,25.3-20.5,45.7-45.7,45.7S64,135,64,109.7S84.5,64,109.7,64S155.4,84.5,155.4,109.7z"/>
</svg>
